<?xml version="1.0" encoding="iso-8859-1"?>
<!-- Generator: Adobe Illustrator 18.1.1, SVG Export Plug-In . SVG Version: 6.00 Build 0)  -->
<svg version="1.1" id="Capa_1" xmlns="http://www.w3.org/2000/svg" xmlns:xlink="http://www.w3.org/1999/xlink" x="0px" y="0px"
	 viewBox="0 0 362.492 362.492" style="enable-background:new 0 0 362.492 362.492;" xml:space="preserve">
<g>
	<g id="Layer_1_88_">
		<path d="M181.246,0.001C81.146,0.001,0,81.147,0,181.246s81.146,181.245,181.246,181.245s181.246-81.146,181.246-181.245
			S281.346,0.001,181.246,0.001z M91.662,121.896c-1.35,3.896-3.076,9.792-3.655,15.746l-0.366,3.701
			c-0.663,6.635-1.348,13.49-1.463,20.352c-0.032,1.961-0.881,3.817-2.341,5.125s-3.397,1.948-5.351,1.767l-39.885-3.709
			c-0.01-0.001-0.02-0.002-0.029-0.003c-2.082-0.202-3.967-1.32-5.143-3.053c-1.182-1.74-1.522-3.918-0.93-5.936
			c5.609-19.105,12.768-35.059,21.883-48.773c0.152-0.225,1.01-1.496,2.051-3.035l0.656-0.975c2.03-3.007,6.012-3.977,9.196-2.245
			c6.411,3.485,16.696,9.421,22.257,12.647C91.455,115.197,92.764,118.713,91.662,121.896z M133.797,54.658l-0.297,0.246
			c-1.095,0.906-2.014,1.666-2.256,1.87c-7.29,6.161-13.92,13.627-19.707,22.199c-2.934,4.491-5.767,9.702-8.601,15.839
			c-0.83,1.8-2.382,3.166-4.271,3.762c-0.916,0.289-1.868,0.385-2.801,0.295c-0.998-0.098-1.974-0.406-2.856-0.922l-16.755-9.742
			c-1.773-1.03-3.008-2.781-3.383-4.795c-0.377-2.016,0.147-4.096,1.428-5.693c4.885-6.092,12.45-14.995,21.704-21.943
			c5.362-4.025,11.128-8.246,17.462-11.722c3.188-1.751,6.63-3.495,10.521-5.332c3.346-1.582,7.349-0.298,9.154,2.934l2.316,4.15
			C137.109,48.769,136.411,52.492,133.797,54.658z M268.137,194.438c-8.697,0-15.749-10.745-15.749-23.999
			s7.052-23.998,15.749-23.998s15.749,10.744,15.749,23.998S276.834,194.438,268.137,194.438z M310.705,235.074
			c-2.781,12.959-11.931,21.983-20.434,20.159c-8.506-1.825-13.145-13.811-10.364-26.77c2.781-12.959,11.931-21.984,20.434-20.159
			C308.845,210.13,313.485,222.114,310.705,235.074z M328.888,194.438c-8.697,0-15.749-10.745-15.749-23.999
			s7.052-23.998,15.749-23.998s15.749,10.744,15.749,23.998S337.585,194.438,328.888,194.438z"/>
	</g>
</g>
<g>
</g>
<g>
</g>
<g>
</g>
<g>
</g>
<g>
</g>
<g>
</g>
<g>
</g>
<g>
</g>
<g>
</g>
<g>
</g>
<g>
</g>
<g>
</g>
<g>
</g>
<g>
</g>
<g>
</g>
</svg>
